<?xml version="1.0" standalone="no"?>
<!DOCTYPE svg PUBLIC "-//W3C//DTD SVG 20010904//EN"
 "http://www.w3.org/TR/2001/REC-SVG-20010904/DTD/svg10.dtd">
<svg version="1.0" xmlns="http://www.w3.org/2000/svg"
 width="672.000000pt" height="672.000000pt" viewBox="0 0 672.000000 672.000000"
 preserveAspectRatio="xMidYMid meet">
<metadata>
Created by potrace 1.14, written by Peter Selinger 2001-2017
</metadata>
<g transform="translate(0.000000,672.000000) scale(0.100000,-0.100000)"
fill="#000000" stroke="none">
<path d="M3129 6716 c-2 -2 -38 -6 -79 -9 -289 -22 -620 -101 -920 -219 -433
-170 -834 -437 -1169 -777 -411 -420 -713 -952 -856 -1511 -13 -52 -26 -106
-29 -120 -2 -14 -11 -56 -19 -95 -9 -38 -19 -97 -22 -130 -4 -33 -9 -69 -11
-80 -26 -143 -26 -671 0 -835 2 -14 7 -47 11 -73 4 -27 8 -58 11 -70 2 -12 6
-39 10 -62 9 -66 80 -333 114 -435 165 -489 430 -921 791 -1291 472 -482 1065
-805 1739 -945 41 -9 84 -17 95 -19 46 -5 131 -18 150 -21 98 -19 569 -27 725
-12 346 32 671 114 992 250 1083 457 1865 1467 2024 2613 3 28 8 59 10 70 13
63 19 208 19 415 0 246 -5 333 -30 490 -8 52 -17 111 -20 130 -11 72 -78 326
-112 429 -205 618 -582 1161 -1087 1567 -429 345 -903 568 -1446 680 -41 9
-86 17 -100 19 -14 2 -38 6 -55 9 -30 5 -85 12 -160 22 -49 7 -570 16 -576 10z
m581 -69 c24 -5 54 -9 160 -23 64 -8 299 -61 405 -90 228 -64 537 -199 763
-332 708 -420 1250 -1111 1487 -1897 34 -113 97 -405 109 -505 3 -25 9 -74 13
-110 16 -134 8 -653 -12 -758 -1 -9 -6 -39 -9 -67 -10 -75 -44 -238 -73 -345
-123 -463 -351 -904 -656 -1270 -88 -106 -308 -329 -385 -392 -31 -25 -70 -58
-87 -72 -16 -15 -81 -63 -143 -107 -432 -311 -946 -519 -1457 -589 -44 -6 -93
-13 -110 -16 -53 -10 -588 -13 -660 -4 -143 17 -161 20 -205 26 -62 8 -297 60
-378 83 -137 39 -180 54 -317 108 -847 334 -1521 1005 -1863 1853 -91 226
-172 526 -197 725 -4 28 -8 61 -11 75 -26 148 -26 718 0 845 2 12 8 48 12 80
4 33 9 62 9 65 1 3 5 23 9 45 86 439 262 864 510 1230 34 49 66 97 73 105 175
225 382 448 510 552 32 25 72 58 88 72 58 51 256 189 363 253 418 252 922 421
1375 459 39 4 74 8 76 10 6 6 572 -3 601 -9z"/>
<path d="M3224 6342 c-18 -2 -30 -27 -70 -137 -27 -74 -50 -132 -52 -130 -3 3
-8 52 -16 180 -2 28 -4 56 -5 63 -1 9 -13 12 -38 10 -34 -3 -38 -6 -36 -28 1
-14 5 -68 9 -120 4 -52 7 -113 8 -135 l2 -40 46 -1 47 -1 45 124 c25 69 46
129 46 134 0 20 16 7 16 -13 1 -53 16 -223 20 -230 2 -3 17 -5 32 -3 15 2 31
4 36 4 5 1 6 18 2 39 -3 21 -8 92 -12 157 -4 66 -8 122 -11 125 -5 6 -38 7
-69 2z"/>
<path d="M3470 6318 c-117 -59 -117 -236 0 -295 70 -36 175 -28 191 15 10 25
4 27 -31 7 -55 -31 -128 -9 -150 46 -27 64 -9 162 36 200 9 7 37 14 62 13 36
0 49 -5 68 -28 24 -28 29 -25 36 18 7 45 -138 61 -212 24z"/>
<path d="M3733 6305 c-8 -21 -1 -26 44 -32 21 -3 39 -6 39 -7 2 -1 -5 -48 -20
-136 -4 -19 -11 -59 -17 -88 -6 -30 -9 -55 -7 -57 1 -2 19 -6 40 -9 36 -6 36
-6 43 37 30 209 37 237 61 237 12 0 34 -4 48 -10 24 -9 26 -7 26 15 0 14 -6
25 -12 26 -15 1 -34 4 -144 24 -98 18 -93 18 -101 0z"/>
<path d="M2825 6295 c-5 -2 -36 -9 -67 -15 -56 -11 -57 -12 -47 -37 5 -14 12
-42 14 -62 3 -20 9 -59 15 -88 11 -50 17 -89 19 -126 1 -15 7 -17 38 -12 20 3
38 7 40 9 2 2 -2 33 -10 69 l-13 65 42 12 c49 14 71 34 83 76 19 68 -48 132
-114 109z m19 -51 c9 -8 16 -21 17 -27 0 -7 2 -22 3 -35 2 -16 -5 -29 -21 -39
-13 -9 -25 -14 -27 -12 -5 7 -26 97 -26 113 0 21 34 21 54 0z"/>
<path d="M2604 6243 c-15 -3 -23 -14 -27 -36 -3 -18 -10 -45 -17 -61 l-11 -30
-44 47 -43 47 -35 -15 c-19 -8 -37 -11 -41 -8 -3 4 -6 2 -6 -3 0 -5 31 -40 69
-77 l69 -68 -28 -85 -29 -85 22 3 c17 2 26 16 42 63 11 33 21 62 23 64 1 3 24
-16 50 -41 45 -43 49 -45 82 -36 19 5 37 12 39 14 3 3 -28 38 -68 78 l-73 74
20 53 c11 30 25 66 31 82 6 15 7 26 3 26 -4 -1 -17 -4 -28 -6z"/>
<path d="M4084 6216 c-86 -38 -121 -177 -64 -254 48 -65 185 -94 254 -54 61
36 98 126 81 202 -20 90 -170 149 -271 106z m153 -36 c37 -22 48 -52 41 -113
-11 -95 -67 -155 -132 -143 -43 8 -66 35 -73 83 -10 72 30 163 81 183 33 13
48 12 83 -10z"/>
<path d="M2293 6154 c-17 -7 31 -119 51 -119 21 0 21 5 0 70 -16 52 -24 60
-51 49z"/>
<path d="M2238 6133 c-24 -6 -23 -25 7 -83 24 -48 38 -60 49 -41 5 7 -32 134
-37 130 -1 -1 -10 -3 -19 -6z"/>
<path d="M4545 5927 c-38 -77 -71 -144 -73 -148 -5 -12 114 -68 152 -72 46 -5
95 34 101 81 4 38 -28 82 -74 102 l-30 12 22 44 c11 24 27 44 34 44 7 0 32
-12 54 -27 34 -22 42 -24 50 -12 5 8 9 17 9 21 0 4 -39 28 -87 52 l-88 44 -70
-141z m108 -110 c-8 -29 -43 -67 -63 -67 -34 0 -39 20 -18 64 35 67 38 70 63
46 15 -14 21 -29 18 -43z"/>
<path d="M1901 6054 c11 -38 -36 -73 -81 -61 -24 6 -32 -3 -20 -23 12 -20 66
-14 100 10 33 23 38 51 14 70 -8 8 -14 9 -13 4z"/>
<path d="M1971 5999 c-33 -20 -34 -21 -27 -75 14 -117 18 -229 8 -219 -5 6
-31 51 -57 100 -64 121 -61 118 -96 99 -16 -8 -29 -19 -29 -24 0 -6 27 -57 60
-114 33 -57 60 -108 60 -113 0 -4 8 -18 18 -31 18 -23 18 -23 56 -5 l38 18 -6
90 c-4 49 -9 117 -12 150 l-5 60 60 -105 c33 -58 60 -111 61 -117 0 -7 2 -13
5 -13 5 0 66 29 72 34 2 2 -26 52 -61 114 -35 61 -69 125 -76 141 -15 36 -24
38 -69 10z"/>
<path d="M4870 5852 c-17 -8 -46 -33 -65 -55 -61 -72 -59 -153 5 -217 52 -52
102 -73 166 -68 79 7 140 66 151 147 7 54 -2 84 -39 126 -59 68 -155 98 -218
67z m170 -67 c48 -49 14 -156 -67 -211 -50 -33 -110 -18 -137 34 -16 32 -13
60 13 110 49 96 132 125 191 67z"/>
<path d="M1630 5784 c-36 -25 -71 -49 -79 -54 -11 -6 0 -28 52 -98 37 -50 80
-111 95 -136 l29 -44 64 45 c35 24 71 48 79 53 13 8 13 11 -2 26 -16 16 -19
15 -57 -15 l-40 -32 -31 42 c-16 23 -30 45 -30 49 0 4 18 19 40 34 35 23 39
29 30 47 -11 19 -12 19 -50 -11 -21 -16 -42 -30 -46 -30 -8 0 -54 64 -54 74 0
3 18 15 40 27 40 23 46 34 32 56 -5 9 -27 -1 -72 -33z"/>
<path d="M3218 5785 c-2 -1 -37 -5 -78 -9 -229 -19 -452 -72 -669 -158 -269
-107 -535 -273 -735 -459 -46 -43 -49 -48 -34 -63 23 -23 27 -21 83 29 353
319 819 527 1320 589 108 14 449 14 525 1 312 -54 323 -57 460 -102 364 -121
691 -323 950 -587 l74 -76 23 22 23 21 -82 81 c-282 277 -607 477 -961 591
-101 33 -228 66 -302 79 -16 3 -41 8 -54 11 -13 2 -49 7 -80 10 -31 4 -67 9
-81 11 -27 6 -377 14 -382 9z"/>
<path d="M5213 5665 c-10 -11 -6 -19 23 -42 l36 -29 -52 -65 c-29 -35 -71 -83
-94 -107 l-40 -42 30 -31 30 -30 58 73 c32 40 74 90 93 111 34 38 35 38 56 21
12 -10 27 -24 33 -31 9 -10 14 -9 27 5 15 16 9 23 -80 97 -53 44 -99 81 -102
82 -3 1 -11 -4 -18 -12z"/>
<path d="M1374 5586 c-24 -24 -44 -48 -44 -54 0 -5 11 -17 25 -26 25 -16 25
-16 25 12 0 52 43 69 80 32 25 -25 25 -50 1 -77 -25 -26 -13 -49 15 -28 28 21
57 18 82 -8 48 -51 8 -117 -53 -89 -31 14 -34 -1 -7 -36 15 -20 22 -22 45 -13
33 13 97 77 98 99 4 56 -9 91 -41 107 -37 19 -30 18 -65 5 -24 -9 -28 -9 -17
1 20 21 14 73 -11 97 -39 37 -82 29 -133 -22z"/>
<path d="M1267 5482 c-16 -18 -14 -24 33 -115 l50 -97 -52 24 c-29 13 -75 34
-102 46 l-48 22 -29 -28 c-16 -15 -27 -29 -25 -31 2 -2 56 -25 122 -52 107
-44 120 -47 130 -32 15 19 16 17 35 -32 14 -34 16 -36 34 -23 18 13 17 17 -27
107 -25 52 -58 123 -73 159 -15 36 -28 66 -29 68 -2 1 -10 -6 -19 -16z"/>
<path d="M5363 5346 c-62 -62 -113 -114 -113 -117 0 -3 27 -34 60 -69 57 -59
62 -62 77 -47 16 15 14 19 -23 51 l-39 34 40 41 39 41 36 -35 c20 -19 41 -35
47 -35 25 0 19 27 -15 63 l-36 37 33 31 34 30 38 -37 c35 -34 41 -36 54 -23
13 13 7 22 -53 80 l-67 66 -112 -111z"/>
<path d="M5638 5242 c-4 -10 -126 -112 -182 -152 -25 -19 -46 -38 -46 -43 0
-10 76 -105 100 -124 27 -22 88 -16 117 13 21 22 25 32 20 66 -4 30 -2 37 6
29 17 -17 72 -13 91 8 37 41 26 87 -39 158 -19 21 -35 41 -35 46 0 9 -27 9
-32 -1z m62 -87 c19 -23 4 -61 -30 -75 -27 -11 -33 -10 -51 6 -20 18 -20 18
18 51 44 37 46 38 63 18z m-110 -94 c15 -29 13 -40 -16 -66 -31 -29 -52 -31
-80 -10 -18 15 -17 17 26 55 52 46 56 47 70 21z"/>
<path d="M1011 5203 c-7 -14 3 -41 45 -121 30 -57 54 -106 54 -108 0 -6 -55 2
-159 22 -55 10 -78 11 -88 3 -23 -20 -24 -18 128 -166 86 -85 95 -91 106 -74
10 16 2 27 -67 87 -44 37 -78 69 -77 70 1 1 49 -6 107 -17 126 -22 130 -23
130 -5 0 7 -23 57 -51 110 -28 53 -48 96 -46 96 3 0 44 -23 91 -51 l86 -51 20
23 c10 13 19 30 20 36 0 7 -26 26 -57 42 -32 16 -94 50 -138 75 -44 25 -83 46
-87 46 -4 0 -11 -8 -17 -17z"/>
<path d="M5792 4984 c-29 -20 -52 -41 -52 -46 0 -22 32 -17 79 12 44 27 49 34
41 51 -6 10 -12 19 -13 19 -2 0 -26 -16 -55 -36z"/>
<path d="M5827 4923 c-48 -32 -54 -40 -42 -52 11 -11 22 -9 69 18 49 28 55 35
46 52 -6 10 -12 19 -14 19 -1 0 -28 -17 -59 -37z"/>
<path d="M2386 4804 c-7 -6 -20 -30 -30 -53 l-19 -41 -439 0 -439 0 -198 -162
c-109 -90 -217 -179 -241 -198 -24 -19 -123 -100 -220 -180 -97 -80 -196 -161
-220 -180 -98 -77 -116 -98 -104 -117 10 -16 27 -18 155 -18 l144 0 5 -830 5
-830 126 -3 c93 -2 129 1 136 10 5 7 18 41 28 75 10 34 23 64 29 66 6 2 163 3
350 2 l338 -1 24 -64 c14 -35 27 -66 30 -69 9 -9 1267 -8 1286 1 15 7 17 36
18 294 0 158 2 290 4 293 2 3 111 6 243 6 l238 -1 5 -278 c4 -246 7 -280 22
-289 11 -8 20 -8 30 1 11 9 14 64 13 286 0 180 3 276 10 277 5 1 89 2 186 3
l176 1 0 -278 c0 -180 4 -282 11 -289 5 -5 19 -7 31 -3 21 6 21 11 21 288 l0
282 219 0 c121 0 222 -3 226 -6 3 -4 6 -137 6 -297 -1 -225 2 -292 12 -300 17
-14 1415 -16 1437 -2 13 8 15 112 15 837 l0 828 165 5 165 5 0 24 c0 20 -34
52 -166 160 -461 377 -591 483 -692 566 l-111 90 -1191 0 -1190 0 -3 40 c-2
22 -8 44 -13 50 -14 14 -619 14 -633 -1z m530 -54 l51 0 -2 -37 c-1 -21 2 -44
8 -50 7 -10 263 -13 1216 -13 l1206 0 50 -41 c28 -23 51 -44 52 -47 2 -4 -924
-7 -2057 -7 -1133 0 -2060 1 -2060 3 0 5 59 54 87 73 21 14 76 16 449 15 234
-1 434 2 445 6 10 4 29 28 41 52 l22 45 95 3 c53 2 152 2 221 1 69 -1 148 -3
176 -3z m2746 -320 l29 -25 -710 0 -711 1 -40 39 -41 40 698 5 c780 6 692 12
775 -60z m-2142 15 l-44 -45 -1146 0 -1145 1 39 32 c22 18 45 37 50 44 9 9
271 12 1151 13 l1139 0 -44 -45z m592 35 c2 -6 39 -46 82 -90 44 -44 77 -82
74 -85 -3 -3 -183 -4 -401 -3 l-396 3 87 92 87 91 232 1 c147 1 233 -3 235 -9z
m-743 -186 l-43 -44 -1164 0 -1164 0 54 44 53 43 1153 0 1154 0 -43 -43z
m2449 8 l44 -37 -726 0 -726 0 -35 29 c-19 16 -35 33 -35 38 0 4 323 8 718 8
l717 0 43 -38z m-1452 -94 c19 -19 23 -28 13 -29 -20 0 -844 0 -948 0 l-85 1
27 28 27 29 470 0 469 0 27 -29z m1618 -40 c22 -18 50 -41 60 -50 23 -21 127
-19 -833 -19 l-644 0 -51 50 -51 51 739 0 738 0 42 -32z m-2734 12 c0 -3 -19
-24 -42 -47 l-43 -41 -1178 0 c-648 1 -1175 4 -1171 7 3 3 28 24 56 46 l51 40
1164 0 c640 0 1163 -2 1163 -5z m1246 -103 l35 -37 -655 0 c-361 0 -656 2
-656 5 0 3 15 20 33 38 l34 32 587 0 587 -1 35 -37z m1706 -87 c31 -25 57 -48
57 -51 1 -4 -345 -7 -767 -8 l-768 -2 -47 50 c-26 27 -42 51 -37 53 6 2 347 3
758 3 l748 -1 56 -44z m-3144 -13 l-53 -53 -755 -3 c-415 -1 -956 -3 -1203 -4
-246 -1 -447 0 -446 3 0 3 28 28 62 57 l62 52 1193 0 1193 1 -53 -53z m1553
-23 l22 -24 -29 0 c-16 0 -361 -2 -767 -3 l-737 -3 25 26 26 27 719 0 719 0
22 -23z m-21 -154 c3 -36 4 -142 2 -236 l-3 -171 -257 1 -257 2 0 162 c0 110
-4 165 -12 173 -13 13 -399 17 -411 4 -4 -4 -9 -82 -12 -173 l-5 -167 -242 0
-243 -1 0 233 0 233 403 2 c221 2 544 3 717 3 l315 0 5 -65z m1400 -738 l0
-807 -668 0 -667 0 -2 802 -1 802 21 3 c12 2 313 4 670 6 l647 2 0 -808z
m-4210 482 c-1 -214 -5 -316 -12 -320 -6 -4 -44 -9 -85 -12 l-73 -5 0 230 c0
198 -2 232 -16 244 -11 9 -20 10 -32 2 -15 -9 -17 -36 -17 -239 l0 -229 -97
-3 -98 -3 0 235 c0 230 0 235 -21 241 -12 4 -26 2 -32 -4 -7 -7 -11 -91 -11
-241 l0 -230 -37 0 -37 0 0 226 c0 136 -4 230 -10 236 -5 5 -18 8 -28 6 -18
-3 -19 -18 -22 -236 l-2 -232 -115 0 c-85 0 -115 3 -116 13 -1 6 -2 110 -3
229 -1 132 -5 221 -11 227 -6 6 -20 8 -32 5 -16 -5 -23 -15 -26 -43 -2 -20 -3
18 -4 84 0 66 1 122 3 125 1 3 212 5 468 6 l467 1 -1 -313z m1304 -206 c-1
-288 -2 -531 -3 -540 -1 -15 -32 -17 -388 -16 -214 0 -395 2 -403 4 -13 3 -15
48 -15 325 0 205 -3 323 -10 327 -18 12 -389 9 -397 -2 -4 -6 -8 -41 -8 -78 0
-38 -4 -68 -8 -68 -5 0 -9 128 -9 283 l0 284 621 2 621 2 -1 -523z m926 199
l0 -143 -150 0 c-100 0 -150 3 -151 10 -4 31 -5 262 -2 269 2 4 71 7 154 7
l149 0 0 -143z m-3163 -34 c-2 -21 -4 -6 -4 32 0 39 2 55 4 38 2 -18 2 -50 0
-70z m0 -110 c-2 -16 -4 -5 -4 22 0 28 2 40 4 28 2 -13 2 -35 0 -50z m1066
-45 c-8 -84 -13 -86 -13 -5 0 37 4 67 9 67 5 0 7 -28 4 -62z m65 55 c-10 -2
-26 -2 -35 0 -10 3 -2 5 17 5 19 0 27 -2 18 -5z m49 1 c-3 -3 -12 -4 -19 -1
-8 3 -5 6 6 6 11 1 17 -2 13 -5z m55 -6 c-9 -9 -12 -92 -12 -312 0 -164 -3
-296 -7 -292 -4 4 -8 136 -8 294 -1 158 -5 295 -9 305 -7 14 -3 17 20 17 22 0
25 -3 16 -12z m81 5 c-7 -2 -19 -2 -25 0 -7 3 -2 5 12 5 14 0 19 -2 13 -5z
m73 -306 c1 -236 -2 -307 -11 -307 -10 0 -13 70 -14 297 0 264 -2 299 -17 310
-14 10 -12 12 12 10 l29 -2 1 -308z m-1389 166 c-2 -21 -4 -6 -4 32 0 39 2 55
4 38 2 -18 2 -50 0 -70z m1143 -193 c0 -148 -3 -270 -8 -270 -4 0 -7 121 -7
270 0 148 3 270 8 270 4 0 7 -121 7 -270z m160 0 c0 -173 -4 -270 -10 -270 -6
0 -10 94 -10 263 0 232 3 277 17 277 2 0 3 -121 3 -270z m1051 225 c0 -19 0
-118 0 -220 0 -102 0 -189 0 -195 -1 -5 -12 -10 -26 -10 l-25 0 0 230 0 230
25 0 c22 0 25 -5 26 -35z m139 -196 l0 -230 -37 3 -38 3 0 215 c-1 118 1 221
3 228 2 6 19 12 38 12 l34 0 0 -231z m150 1 l0 -230 -43 0 -44 0 0 230 0 230
44 0 43 0 0 -230z m140 0 l0 -230 -35 0 c-21 0 -36 5 -36 13 -4 32 -5 433 -2
440 3 4 20 7 39 7 l34 0 0 -230z m150 0 l0 -230 -44 0 -44 0 0 230 0 230 44 0
44 0 0 -230z m140 -1 l0 -230 -37 3 -37 3 -1 220 c0 121 1 223 3 228 2 4 19 7
38 7 l34 0 0 -231z m170 1 l0 -230 -54 0 -54 0 1 230 0 230 54 0 53 0 0 -230z
m140 0 l0 -230 -38 0 -39 0 0 230 0 230 39 0 38 0 0 -230z m125 -3 l0 -227
-32 0 -31 0 0 231 1 230 31 -3 31 -3 0 -228z m135 3 l0 -230 -35 0 -35 0 -1
63 c0 58 0 261 1 355 0 41 1 42 35 42 l35 0 0 -230z m102 108 c5 -219 -1 -338
-17 -338 -8 0 -16 3 -16 8 -4 21 -5 429 -1 440 2 6 10 12 17 12 11 0 15 -29
17 -122z m-3677 -245 c0 -101 -3 -183 -7 -184 -5 -1 -17 -1 -28 -1 -11 0 -24
0 -29 1 -6 1 -9 331 -3 364 1 5 17 7 34 5 l33 -3 0 -182z m83 -3 c0 -99 -4
-180 -9 -180 -5 0 -9 83 -9 186 0 102 4 183 9 180 4 -3 8 -87 9 -186z m77 -1
c0 -98 -3 -179 -7 -179 -5 0 -8 84 -8 187 0 102 3 183 7 179 4 -4 8 -88 8
-187z m107 179 c2 -7 4 -91 3 -187 0 -160 -1 -174 -18 -177 -10 -1 -21 6 -25
16 -4 10 -6 95 -4 189 3 159 4 171 21 171 11 0 21 -6 23 -12z m78 -173 c0
-102 -3 -185 -8 -185 -5 0 -9 354 -3 368 8 20 11 -29 11 -183z m80 -6 c0 -98
-4 -179 -8 -179 -5 0 -9 83 -9 185 -1 108 3 183 8 179 5 -3 9 -86 9 -185z m92
182 c0 -3 2 -87 3 -187 1 -166 0 -181 -16 -177 -15 4 -17 24 -17 187 0 149 3
183 14 183 8 0 15 -3 16 -6z m85 -181 c0 -99 -4 -183 -9 -186 -4 -3 -8 81 -8
186 0 105 4 189 9 186 4 -3 8 -87 8 -186z m79 -1 c1 -99 -3 -182 -7 -185 -5
-3 -9 81 -9 187 0 106 3 189 8 185 4 -4 7 -88 8 -187z m124 3 l0 -189 -27 2
-28 1 -3 187 -2 187 30 0 30 0 0 -188z m130 11 c0 -97 -2 -174 -5 -171 -3 2
-5 72 -6 154 -1 182 0 194 6 194 3 0 5 -79 5 -177z m146 -486 l1 -218 -55 3
-54 3 -21 50 c-15 37 -21 77 -23 153 -1 57 -7 109 -13 116 -8 9 -99 12 -390
11 -209 0 -383 -4 -387 -8 -4 -4 -8 -53 -9 -110 -1 -75 -7 -119 -24 -168 l-22
-67 -77 2 -77 1 -1 227 -2 228 462 2 c253 2 513 1 576 -2 l115 -5 1 -218z
m1090 211 c2 -17 -28 -18 -512 -18 -508 0 -514 0 -514 20 0 20 5 20 512 18
478 -3 511 -4 514 -20z m-5 -87 c3 0 6 -8 6 -16 0 -13 -64 -15 -514 -15 -421
0 -513 2 -513 13 0 8 2 16 4 18 4 3 999 4 1017 0z m-1403 -70 l102 -1 0 -65 0
-65 -337 2 -338 3 0 60 0 60 50 5 c28 3 133 4 235 3 102 -1 231 -2 288 -2z
m1408 -43 c2 -17 -28 -18 -512 -18 -493 0 -514 1 -514 18 0 18 20 19 512 18
479 -1 511 -2 514 -18z m-1 -99 c3 -15 -45 -16 -511 -16 -497 -1 -514 0 -514
18 0 19 16 19 512 17 460 -3 511 -5 513 -19z m0 -104 c0 -20 -8 -20 -512 -23
l-513 -2 0 25 0 25 513 -2 c504 -3 512 -3 512 -23z"/>
<path d="M4848 3652 c-16 -2 -29 -6 -29 -10 -5 -26 -3 -695 2 -703 3 -6 112
-8 270 -7 l264 3 2 80 c2 44 2 134 2 200 0 66 0 127 0 135 3 189 0 285 -8 293
-10 10 -434 17 -503 9z m19 -62 c1 -11 -2 -20 -8 -20 -5 0 -9 9 -9 20 0 11 4
20 8 20 4 0 8 -9 9 -20z m56 6 c6 -14 -1 -26 -14 -26 -4 0 -7 9 -6 20 1 23 12
26 20 6z m57 -6 c0 -11 -4 -20 -10 -20 -5 0 -10 9 -10 20 0 11 5 20 10 20 6 0
10 -9 10 -20z m60 1 c0 -11 -4 -23 -10 -26 -6 -4 -10 5 -10 19 0 14 5 26 10
26 6 0 10 -9 10 -19z m60 0 c0 -11 -4 -23 -10 -26 -6 -4 -10 5 -10 19 0 14 5
26 10 26 6 0 10 -9 10 -19z m60 -1 c0 -19 -11 -26 -23 -14 -8 8 3 34 14 34 5
0 9 -9 9 -20z m60 8 c0 -13 -19 -47 -21 -38 -6 33 -4 50 8 50 7 0 13 -6 13
-12z m56 -4 c-3 -9 -6 -21 -7 -27 0 -7 -4 -3 -8 8 -9 22 -5 35 11 35 5 0 7 -7
4 -16z m41 -16 c-3 -7 -5 -2 -5 12 0 14 2 19 5 13 2 -7 2 -19 0 -25z m-449
-109 c1 -21 -3 -41 -7 -43 -4 -3 -8 20 -9 51 0 33 3 51 8 44 4 -7 8 -31 8 -52z
m57 0 c0 -23 -5 -44 -11 -46 -8 -3 -11 52 -5 102 3 27 17 -20 16 -56z m55 6
c0 -30 -4 -55 -9 -55 -9 0 -13 88 -5 102 11 17 14 6 14 -47z m60 10 c0 -25 0
-48 1 -52 0 -4 -4 -9 -10 -11 -7 -2 -11 17 -11 52 0 31 5 56 10 56 6 0 10 -20
10 -45z m60 -10 c0 -30 -4 -55 -10 -55 -5 0 -10 25 -10 55 0 30 5 55 10 55 6
0 10 -25 10 -55z m59 -5 c1 -28 -3 -50 -9 -50 -6 0 -10 25 -10 56 0 68 16 64
19 -6z m59 -7 c1 -30 -3 -43 -10 -41 -12 4 -19 83 -10 102 9 16 20 -17 20 -61z
m57 7 c0 -22 -5 -39 -10 -38 -10 3 -15 63 -7 86 8 23 18 -5 17 -48z m42 -37
c-3 -10 -5 -4 -5 12 0 17 2 24 5 18 2 -7 2 -21 0 -30z m-449 -104 c-2 -54 -17
-49 -16 6 0 24 4 42 9 39 5 -3 8 -23 7 -45z m57 9 c-1 -41 -19 -44 -21 -3 -1
34 4 47 15 41 4 -3 7 -20 6 -38z m55 -3 c0 -25 -4 -45 -8 -45 -5 0 -9 20 -9
45 0 25 3 45 8 45 5 0 9 -20 9 -45z m60 0 c0 -25 -4 -45 -10 -45 -5 0 -10 20
-10 45 0 25 5 45 10 45 6 0 10 -20 10 -45z m60 0 c0 -25 -4 -45 -10 -45 -5 0
-10 20 -10 45 0 25 5 45 10 45 6 0 10 -20 10 -45z m58 0 c0 -25 -4 -45 -9 -45
-5 0 -9 20 -9 45 0 25 4 45 9 45 5 0 9 -20 9 -45z m59 0 c0 -28 -4 -44 -11
-42 -9 3 -12 30 -7 75 0 6 5 12 10 12 4 0 8 -20 8 -45z m58 5 c0 -22 -5 -40
-10 -40 -5 0 -10 18 -10 40 0 22 4 40 10 40 6 0 10 -18 10 -40z m42 -37 c-3
-10 -5 -2 -5 17 0 19 2 27 5 18 2 -10 2 -26 0 -35z m-450 -113 c0 -33 -3 -60
-7 -60 -4 0 -7 27 -8 60 0 33 3 60 7 60 4 0 8 -27 8 -60z m55 48 c8 -25 3 -98
-7 -98 -5 0 -10 25 -10 55 -1 51 7 71 17 43z m58 -48 c0 -33 -4 -60 -8 -60 -5
0 -10 27 -11 60 -1 37 2 60 8 60 7 0 11 -25 11 -60z m60 0 c0 -33 -4 -60 -10
-60 -6 0 -10 27 -10 60 0 33 4 60 10 60 6 0 10 -27 10 -60z m60 0 c0 -33 -4
-60 -10 -60 -6 0 -10 27 -10 60 0 33 4 60 10 60 6 0 10 -27 10 -60z m59 0 c-1
-33 -5 -60 -10 -60 -5 0 -9 27 -9 60 0 33 4 60 10 60 5 0 9 -27 9 -60z m59 0
c-2 -70 -22 -78 -23 -9 -1 50 3 69 16 69 4 0 7 -27 7 -60z m54 48 c8 -24 3
-98 -7 -101 -5 -1 -10 24 -10 56 0 53 7 73 17 45z m45 -40 c-3 -7 -5 -2 -5 12
0 14 2 19 5 13 2 -7 2 -19 0 -25z m-449 -168 c-1 -33 -4 -60 -9 -60 -4 0 -8
27 -8 60 0 33 4 60 9 60 4 0 8 -27 8 -60z m54 48 c8 -24 3 -98 -7 -98 -5 0
-10 25 -10 55 -2 51 7 72 17 43z m58 -48 c0 -33 -4 -60 -8 -60 -4 0 -9 27 -10
60 -1 35 2 60 8 60 6 0 10 -27 10 -60z m60 0 c0 -33 -4 -60 -10 -60 -6 0 -10
27 -10 60 0 33 4 60 10 60 6 0 10 -27 10 -60z m60 0 c0 -33 -4 -60 -10 -60 -6
0 -10 27 -10 60 0 33 4 60 10 60 6 0 10 -27 10 -60z m59 0 c-1 -33 -5 -60 -10
-60 -5 0 -9 27 -9 60 0 33 4 60 10 60 5 0 9 -27 9 -60z m59 0 c-2 -70 -22 -78
-23 -9 -1 50 3 69 16 69 4 0 7 -27 7 -60z m57 -6 c0 -32 -4 -53 -10 -51 -10 4
-15 93 -7 110 9 18 16 -7 17 -59z m42 -41 c-3 -10 -5 -2 -5 17 0 19 2 27 5 18
2 -10 2 -26 0 -35z"/>
<path d="M5433 3652 l-33 -3 0 -360 0 -359 270 0 c149 0 271 3 271 8 6 28 4
694 -2 703 -5 8 -76 12 -240 13 -129 1 -249 0 -266 -2z m14 -79 c-3 -10 -5 -4
-5 12 0 17 2 24 5 18 2 -7 2 -21 0 -30z m63 17 c0 -11 -4 -20 -10 -20 -5 0
-10 9 -10 20 0 11 5 20 10 20 6 0 10 -9 10 -20z m60 1 c0 -11 -4 -23 -10 -26
-6 -4 -10 5 -10 19 0 14 5 26 10 26 6 0 10 -9 10 -19z m60 -1 c0 -11 -4 -20
-10 -20 -5 0 -10 9 -10 20 0 11 5 20 10 20 6 0 10 -9 10 -20z m52 -18 c-4 -13
-7 -12 -12 4 -4 10 -5 23 -2 28 7 13 21 -16 14 -32z m62 22 c8 -21 8 -21 -8
-27 -9 -4 -13 2 -13 19 0 27 12 32 21 8z m56 -3 c0 -29 -15 -33 -18 -5 -1 13
3 24 8 24 6 0 10 -9 10 -19z m60 0 c0 -11 -4 -23 -10 -26 -6 -4 -10 5 -10 19
0 14 5 26 10 26 6 0 10 -9 10 -19z m47 -13 c-3 -7 -5 -2 -5 12 0 14 2 19 5 13
2 -7 2 -19 0 -25z m-458 -105 c-1 -39 -3 -50 -8 -34 -6 24 -3 91 5 91 2 0 4
-26 3 -57z m61 2 c0 -30 -4 -55 -10 -55 -5 0 -10 25 -10 55 0 30 5 55 10 55 6
0 10 -25 10 -55z m60 0 c0 -30 -4 -55 -10 -55 -5 0 -10 25 -10 55 0 30 5 55
10 55 6 0 10 -25 10 -55z m60 -6 c0 -27 -4 -49 -10 -49 -5 0 -10 25 -10 56 0
34 4 53 10 49 6 -3 10 -28 10 -56z m55 1 c1 -32 -2 -49 -9 -47 -10 3 -16 82
-8 100 8 17 16 -5 17 -53z m56 53 c7 -43 3 -103 -7 -103 -8 0 -12 19 -12 55 1
30 5 55 9 55 5 0 10 -3 10 -7z m59 -48 c0 -30 -4 -55 -10 -55 -7 0 -8 93 -1
108 7 13 11 -8 11 -53z m60 0 c0 -30 -4 -55 -10 -55 -5 0 -10 25 -10 55 0 30
5 55 10 55 6 0 10 -25 10 -55z m47 -32 c-2 -16 -4 -3 -4 27 0 30 2 43 4 28 2
-16 2 -40 0 -55z m-458 -110 c-1 -41 -2 -44 -8 -18 -7 28 -4 65 5 65 2 0 3
-21 3 -47z m61 2 c0 -25 -4 -45 -10 -45 -5 0 -10 20 -10 45 0 25 5 45 10 45 6
0 10 -20 10 -45z m60 0 c0 -25 -4 -45 -10 -45 -5 0 -10 20 -10 45 0 25 5 45
10 45 6 0 10 -20 10 -45z m60 0 c0 -25 -4 -45 -10 -45 -5 0 -10 20 -10 45 0
25 5 45 10 45 6 0 10 -20 10 -45z m54 -1 c0 -53 -17 -50 -18 4 -1 24 3 41 9
39 5 -2 10 -21 9 -43z m62 10 c1 -36 -5 -55 -16 -49 -13 8 -10 87 3 82 7 -2
12 -17 13 -33z m54 -9 c0 -25 -4 -45 -9 -45 -5 0 -9 20 -9 45 0 25 4 45 9 45
5 0 9 -20 9 -45z m60 0 c0 -25 -4 -45 -10 -45 -5 0 -10 20 -10 45 0 25 5 45
10 45 6 0 10 -20 10 -45z m47 -22 c-2 -16 -4 -5 -4 22 0 28 2 40 4 28 2 -13 2
-35 0 -50z m-458 -125 c-2 -56 -3 -58 -8 -23 -6 38 -3 85 5 85 2 0 3 -28 3
-62z m61 2 c0 -33 -4 -60 -10 -60 -6 0 -10 27 -10 60 0 33 4 60 10 60 6 0 10
-27 10 -60z m60 0 c0 -33 -4 -60 -10 -60 -6 0 -10 27 -10 60 0 33 4 60 10 60
6 0 10 -27 10 -60z m60 0 c0 -33 -4 -60 -10 -60 -6 0 -10 27 -10 60 0 33 4 60
10 60 6 0 10 -27 10 -60z m55 0 c0 -29 -5 -55 -11 -57 -6 -2 -10 20 -10 57 0
36 4 59 10 57 6 -2 11 -28 11 -57z m58 14 c-1 -65 -3 -74 -12 -74 -5 0 -9 27
-9 60 1 39 5 59 12 57 5 -2 10 -21 9 -43z m57 -14 c0 -33 -4 -60 -8 -60 -4 0
-8 27 -9 60 0 33 3 60 8 60 5 0 9 -27 9 -60z m60 0 c0 -33 -4 -60 -10 -60 -6
0 -10 27 -10 60 0 33 4 60 10 60 6 0 10 -27 10 -60z m47 -32 c-2 -18 -4 -4 -4
32 0 36 2 50 4 33 2 -18 2 -48 0 -65z m-457 -130 c0 -34 -2 -59 -5 -56 -8 8
-11 118 -3 118 5 0 8 -28 8 -62z m60 2 c0 -33 -4 -60 -10 -60 -6 0 -10 27 -10
60 0 33 4 60 10 60 6 0 10 -27 10 -60z m60 0 c0 -33 -4 -60 -10 -60 -6 0 -10
27 -10 60 0 33 4 60 10 60 6 0 10 -27 10 -60z m60 0 c0 -33 -4 -60 -10 -60 -6
0 -10 27 -10 60 0 33 4 60 10 60 6 0 10 -27 10 -60z m55 0 c0 -29 -5 -55 -11
-57 -6 -2 -10 19 -9 57 0 35 4 59 10 57 5 -2 10 -28 10 -57z m56 53 c7 -43 3
-113 -5 -110 -13 4 -18 117 -5 117 5 0 10 -3 10 -7z m59 -54 c0 -34 -4 -58 -9
-54 -12 7 -11 115 1 115 4 0 8 -27 8 -61z m60 1 c0 -33 -4 -60 -10 -60 -6 0
-10 27 -10 60 0 33 4 60 10 60 6 0 10 -27 10 -60z m47 -32 c-2 -18 -4 -4 -4
32 0 36 2 50 4 33 2 -18 2 -48 0 -65z"/>
<path d="M4901 2583 c-10 -20 -8 -229 2 -239 9 -9 851 -9 866 0 16 10 15 228
-1 244 -9 9 -119 12 -435 12 -392 0 -423 -1 -432 -17z m805 -52 c7 -1 11 -25
11 -66 l0 -65 -379 0 c-371 0 -378 0 -379 20 -1 26 -1 86 0 103 1 9 81 12 369
11 202 -1 372 -2 378 -3z"/>
<path d="M1335 2066 c-19 -13 -18 -16 25 -77 177 -255 403 -479 655 -646 314
-209 598 -318 1010 -388 149 -25 535 -26 660 -1 11 2 54 9 95 16 475 76 957
330 1310 689 78 80 203 229 260 310 l23 34 -22 18 -23 19 -46 -63 c-109 -149
-315 -364 -447 -468 -363 -286 -756 -448 -1215 -503 -103 -13 -448 -13 -520
-1 -19 3 -66 10 -105 16 -409 63 -830 254 -1155 527 -152 128 -306 296 -424
465 -26 37 -51 67 -55 67 -4 0 -16 -6 -26 -14z"/>
<path d="M2001 943 c-21 -43 -55 -107 -75 -141 -20 -35 -36 -67 -36 -71 0 -4
15 -14 33 -23 l32 -16 37 72 c29 55 37 65 38 46 3 -66 7 -146 9 -156 1 -9 62
-44 77 -44 3 0 3 20 0 45 -3 25 -9 66 -12 93 -3 26 -8 55 -10 65 -6 18 29 37
124 67 47 15 52 23 20 37 -17 7 -39 2 -101 -24 -44 -18 -82 -31 -85 -29 -2 3
9 30 26 60 33 57 32 60 -15 85 -21 11 -25 7 -62 -66z"/>
<path d="M4372 870 l-63 -29 24 -48 c13 -26 41 -93 62 -148 21 -55 39 -101 40
-103 4 -6 75 29 72 36 -17 33 -47 104 -47 111 0 5 18 20 39 32 59 33 75 82 46
138 -26 51 -79 54 -173 11z m78 -20 c10 -5 24 -26 30 -46 10 -30 9 -38 -6 -55
-9 -10 -21 -19 -25 -19 -4 0 -17 25 -29 57 -17 45 -18 58 -8 64 16 11 16 11
38 -1z"/>
<path d="M2430 832 c0 -4 -10 -18 -23 -32 -13 -14 -56 -63 -97 -110 -41 -47
-80 -89 -87 -93 -22 -14 -15 -37 12 -37 14 0 25 3 25 8 0 4 12 20 25 35 l25
28 50 -16 50 -17 0 -49 c0 -47 2 -49 36 -64 20 -8 39 -15 41 -15 3 0 2 64 -2
143 -4 78 -8 158 -8 177 0 19 -5 38 -11 42 -14 10 -36 10 -36 0z m-20 -143 c0
-51 0 -51 -27 -44 -44 10 -47 20 -13 59 18 20 34 36 36 36 2 0 4 -23 4 -51z"/>
<path d="M4091 775 c-40 -13 -75 -26 -78 -29 -3 -3 2 -25 12 -49 9 -24 29 -93
45 -153 20 -76 33 -108 42 -105 141 38 163 48 160 67 -5 26 -2 26 -59 4 l-50
-19 -15 55 c-9 30 -13 56 -9 58 3 2 25 9 49 15 25 7 42 18 42 27 0 23 -22 26
-63 9 -20 -8 -39 -15 -41 -15 -6 0 -26 68 -26 87 0 6 15 14 33 18 61 12 65 15
60 35 -6 24 -9 24 -102 -5z"/>
<path d="M2711 625 c-44 -63 -90 -128 -102 -144 -24 -33 -24 -37 5 -43 14 -2
34 21 84 100 35 56 66 101 68 99 2 -1 6 -45 9 -97 7 -96 12 -140 17 -145 2 -2
20 -6 42 -10 38 -8 38 -7 32 21 -8 42 -14 89 -22 179 -4 44 -8 89 -10 100 -1
11 -3 25 -3 31 -1 7 -10 14 -21 17 -17 4 -34 -15 -99 -108z"/>
<path d="M3662 723 c-27 -4 -32 -8 -30 -26 2 -18 -3 -22 -34 -28 -47 -7 -84
-32 -108 -72 -35 -57 -20 -154 32 -204 26 -25 37 -28 94 -28 43 0 64 -4 64
-12 0 -19 19 -25 55 -19 26 5 32 11 28 25 -4 15 5 21 44 30 26 7 56 20 67 29
77 70 57 229 -34 264 -13 5 -46 9 -72 10 -37 0 -49 4 -53 19 -4 10 -9 18 -13
17 -4 0 -22 -3 -40 -5z m140 -80 c37 -33 54 -145 29 -191 -16 -29 -70 -58 -76
-40 -4 14 -22 133 -31 210 l-5 46 33 -5 c18 -2 41 -12 50 -20z m-153 -60 c7
-38 14 -85 16 -105 3 -21 5 -41 6 -45 5 -29 -3 -43 -24 -43 -86 0 -132 177
-62 237 42 37 52 30 64 -44z"/>
<path d="M3137 679 c-80 -13 -129 -72 -135 -162 -3 -52 0 -67 20 -96 13 -19
38 -43 55 -54 38 -22 131 -30 176 -15 128 43 152 235 38 302 -41 24 -103 34
-154 25z m101 -45 c68 -47 54 -212 -20 -250 -57 -30 -123 9 -135 79 -21 130
70 231 155 171z"/>
</g>
</svg>
